<?xml version="1.0" encoding="utf-8"?>
<!-- Generator: Adobe Illustrator 16.0.0, SVG Export Plug-In . SVG Version: 6.00 Build 0)  -->
<!DOCTYPE svg PUBLIC "-//W3C//DTD SVG 1.1//EN" "http://www.w3.org/Graphics/SVG/1.1/DTD/svg11.dtd">
<svg version="1.1" id="Layer_1" xmlns="http://www.w3.org/2000/svg" xmlns:xlink="http://www.w3.org/1999/xlink" x="0px" y="0px"
	 width="1466px" height="700px" viewBox="0 0 1466 700" enable-background="new 0 0 1466 700" xml:space="preserve">
<g>
	<path fill="#1E1E1E" d="M789.84,497.61c-0.14-2.03-1-4.01-1.62-5.93c-1.93-1.71-4.229-3-5.79-5.09
		c-7.06-8.63-16.94-14.24-26.68-19.31c-7.18-5.18-15.67-7.71-23.36-11.85c-0.372-0.234-0.746-0.373-1.121-0.454
		c-0.119-0.113-0.276-0.193-0.488-0.193c-0.004,0-0.008,0.002-0.012,0.002c-1.296-0.454-2.513-1.313-3.831-1.706
		c-0.009-0.012-0.013-0.027-0.022-0.039c0.014-0.024,0.03-0.047,0.044-0.071c-0.09-0.037-0.181-0.076-0.271-0.113
		c-0.01-0.005-0.021-0.009-0.032-0.013c-6.394-2.649-12.657-5.915-19.636-6.614c2.57,2.53,6.08,3.75,9.24,5.4
		c0.32,0.99,0.09,2.06,0.19,3.09c1.08-0.1,2.17-0.29,3.28-0.35c0.2,0.54,0.61,1.63,0.82,2.17c7.12,2.86,12.51,8.88,19.88,11.16
		c2.23,0.39,2.53,3.5,4.87,3.63c1.59,0.31,3.26,0.73,4.27,2.14c2.3,2.77,5.63,4.29,8.3,6.63l-0.09,0.78
		c-2.51-0.57-4.9-1.55-7.34-2.3c-8.19-2.87-16.75-4.38-24.99-7.05c-14.85-3.51-29.71-6.97-44.53-10.58
		c-19.61-5.57-39.24-11.03-59.06-15.85c-10.16-2.67-20.1-6.06-30.32-8.54c-5.32-1.25-10.42-3.27-15.2-5.91
		c-6.55-2.25-12.58-5.81-18.22-9.79c1.42-4.19,5.53-6.3,7.85-9.86c4.5-6.32,6.88-13.78,10.05-20.78c1.18-3.91,2.45-7.84,3.28-11.83
		c-0.77-2.72-1.12-5.46-0.07-8.16c-1.11-5.02-2.2-10.62-6.31-14.11c-4.79-5.06-12.36-5.82-18.92-5.23c-4.16,0.1-7.54,2.7-11.07,4.53
		c-3.47-1.31-4.41-5.76-7.1-8.15c-2.28-1.85-3.53-4.54-5.36-6.76c-5.11-4.91-10.28-9.76-16.11-13.81
		c-5.6-5.15-12.72-7.98-19.13-11.89c-3.57-1.88-7.63-2.49-11.45-3.69c-2.25-0.87-4.44,0.86-5.19,2.91
		c-0.23,5.15,0.91,10.23,1.99,15.23c2.28,8,4.66,16.08,8.96,23.27c1.74,2.78,2.48,6.02,3.96,8.93c2.47,5.09,5.97,9.59,8.39,14.71
		c0.66,1.67,2.51,3.04,2.24,4.96c-0.51-0.03-1.52-0.09-2.02-0.12c-10.12-3.4-19.78-8.01-30-11.14c-5.05-1.61-9.41-4.76-14.38-6.55
		c-4.19-1.47-7.99-3.96-12.41-4.71c-2.67-1.19-4.85-3.44-7.78-4.13c-6.3-1.62-11.57-5.78-17.93-7.17
		c-8.06-2.03-14.39-7.76-22.18-10.42c1.23-3.4,5.25-4.33,7.53-6.88c2.59-3.07,5.6-5.79,8.87-8.12c3.54-2.43,6.19-5.9,9.69-8.38
		c2.71-1.94,4.54-4.76,6.8-7.15c5.5-2.93,9.43-7.9,14.15-11.85c3.35-2.66,6.12-6,9.76-8.31c3.47-2.18,5.07-6.46,9.07-7.93
		c3.5-3.12,7.38-5.87,10.63-9.26c5.37-7.56,12.83-13.21,19.16-19.9c13.49-12.9,25.16-27.45,38.42-40.59
		c7.7-9.28,14.77-19.16,23.4-27.64c2.63-3.04,4.73-6.53,7.72-9.26c3.76-3.44,5.28-8.55,8.79-12.19
		c7.05-7.14,11.45-16.45,18.67-23.45c1.86-1.92,2.94-4.44,4.6-6.53c0.7-0.88,0.26-2.05,0.4-3.07c3.97-1.48,4.65-6.11,7.9-8.42
		c3.96-3.31,5.02-8.73,8.72-12.24c3.71-3.48,5.29-8.54,8.83-12.16c6.09-6.47,10.2-14.42,15.54-21.46
		c3.16-6.05,6.67-11.92,10.37-17.65c1.66-0.27,3.28,0.62,4.93,0.82c-0.02-2.39-0.36-4.79-0.05-7.18c0.16-2.59,1.43-5.14,0.67-7.74
		c-0.56-4.15-3.27-7.48-5.35-10.97c-1.72-1.3-4.08-2.08-6.12-1.06c-0.94,3.01-1.7,6.1-3.31,8.85c-3.91,6.8-6.8,14.21-11.5,20.54
		c-2.83,3.65-4.28,8.18-7.46,11.59c-2.54,2.72-3.87,6.21-5.7,9.37c-4.56,3.67-7.08,9.05-10.09,13.91
		c-7.9,8.27-13.44,18.39-20.78,27.13c-4.44,5.01-6.8,11.62-11.98,16.01c-3.27,2.84-4.82,7.06-7.8,10.15
		c-1.65,1.72-3.22,3.51-4.56,5.47c-2.98,4.31-6.88,7.86-9.83,12.19c-7.83,9.8-17.16,18.34-24.38,28.63
		c-2.55,2.44-5.02,4.95-7.29,7.66c-1.72,2.05-5.4,3.41-4.92,6.56c-4.33,1.86-7.09,5.96-10.26,9.29c-3.09,3.89-7.81,6.52-9.68,11.31
		c-1.27,1.41-3.42,1.84-4.56,3.46c-2.91,3.47-6.54,6.33-8.97,10.16c-5.2,2.93-8.62,7.95-13.11,11.75
		c-5.24,4.75-10.38,9.61-15.39,14.6c-6.5,5.83-13.3,11.35-19.4,17.61c-2.89,2.81-6.3,5.08-8.68,8.39
		c-5.9,4.71-11.85,9.41-17.05,14.92c-6.52,5.5-13.1,10.91-19.81,16.19c-1.93,1.44-3.5,3.66-5.99,4.12
		c-7.35-2.23-14.76-4.5-21.43-8.39c-4.41,0.16-7.86-2.9-11.67-4.65c-5.28-2.24-10.5-4.68-16.16-5.79
		c-6.22-3.58-13.23-5.41-19.83-8.18c-15.67-5.51-31.16-11.67-47.21-16.02c-5.04-2.12-10.07-4.39-15.44-5.55
		c-3.06-1.14-6.23-3.98-9.57-2.01c-0.06-0.65-0.12-1.3-0.2-1.95c-4.74-0.95-8.93-3.71-13.76-4.27c-9.19-1.08-17.26-6.22-26.28-7.94
		c-3.16-1.79-6.93-1.3-10.18-2.77c-6.88-2.26-14.29-1.95-21.26-3.79c-14.43-4.17-29.48-4.6-44.27-6.49
		c-8.35-0.78-16.75-0.05-25.12-0.64c-5.04,0.16-10.16,0.29-15.05,1.68c-2.72,0.8-5.58,0.31-8.33,0.82
		c-7.27,2.04-14.24,5.23-20.44,9.54c-4.34,2.99-7.03,7.64-10.49,11.51c-7.72,12.09-11.44,26.42-12.22,40.66
		c0.2,9.88,0.43,19.82,1.55,29.65c3.44,13.2,5.41,26.97,11.51,39.32c2.19,4.26,2.96,9.15,5.68,13.16c1.55,2.34,2.01,5.16,3.28,7.64
		c8.51,12.82,14.92,27.27,25.95,38.26c2.81,4.4,6.63,7.99,10.2,11.76c2.58,2.72,5.98,4.59,8.25,7.64c2.57,3.88,7.4,5.2,10.4,8.65
		c2.56,3.28,6.9,3.86,10.4,5.68c6.03,3.28,12.77,4.93,19.3,6.9c9.15,0.78,18.66,2.63,27.61-0.31c6.58-0.75,12.92-2.85,19.54-3.36
		c7.61-4.16,16.19-6.1,23.78-10.34c4.36-2.48,9.4-3.6,13.53-6.52c4.03-2.8,8.35-5.16,12.82-7.18c4.41-3.96,9.79-6.45,14.98-9.17
		c2.64-1.19,4.17-3.96,6.97-4.85c7.14-3.14,13.6-7.5,19.74-12.27c3.13-2.7,7.4-3.68,10.2-6.8c3.6-2.77,6.83-6.01,10.9-8.1
		c4.87-2.65,8.63-6.82,13.35-9.67c7.85-5.08,14.56-11.84,22.89-16.17c2.99-1.54,4.75-4.71,7.89-6.04c5-2.4,8.66-6.64,12.82-10.16
		c1.95-1.82,4.65-2.56,6.49-4.52c2.66-2.67,6.15-4.43,8.37-7.56c0.82-1.38,2.42-1.76,3.79-2.38c4.35-1.57,6.8-5.81,10.32-8.56
		c1.58-1.11,3.09-3.28,5.28-2.51c5.66,1.61,10.91,4.37,16.47,6.3c3.12,0.9,5.37,3.36,8.17,4.88c4.78,1.74,9.3,4.1,14.01,6.03
		c8.44,4.3,17.33,7.51,26.16,10.89c5.91,3,11.96,5.81,18.38,7.57c4.31,0.83,7.73,3.83,11.86,5.19c10.28,3.92,20.28,8.54,30.6,12.34
		c3.14,1.1,5.83,3.81,9.3,3.7c1.13-2.41-0.64-4.81-1.31-7.08c3.31-3.7-0.31-8.6-2.65-11.84c-9.37-16.35-18.44-32.92-25.91-50.24
		c-0.65-1.6-0.31-3.39-0.22-5.05c3.99,0.36,8.04,1.64,11.18,4.21c2.95,2.61,7.28,2.97,9.94,6.02c3.03,3.2,6.92,5.28,10.68,7.47
		c2.35,2.63,4.3,5.61,6.87,8.06c3.49,4.22,4.59,9.75,6.06,14.89c0.87,3.12-0.86,6.19-0.68,9.33c1.83,2.68,3.58,5.42,5.21,8.24
		c0.97,2.16,3.75,2.15,5.76,1.83c1.07-5.14,1.56-10.39,2.57-15.54c1.34-3.89,5.11-5.99,8.48-7.92c3.65-0.16,7.33,0.2,10.9,1.02
		c0.57,1.43,0.95,3.03,0.51,4.57c-1.58,7.86-5.28,15.11-9.66,21.76c-2.47,4.6-6.25,8.27-9.92,11.91c-2.24,2.11-5.51,3.89-5.73,7.32
		c-1.05,8,2.3,16.38,8.45,21.59c6.8,5.62,14.52,10.3,22.9,13.05c3.69,2.56,8.03,4.02,12.39,4.95c2.26,0.51,4.09,2.21,6.43,2.5
		c4.88,0.5,9.35,2.65,14.11,3.71c4.2,0.78,7.9,3.17,12.16,3.78c8.23,1.03,15.86,4.59,24.1,5.65c5.3,0.44,9.88,3.48,15.12,4.19
		c8.93,2.08,17.78,4.49,26.75,6.4c3.62,0.63,6.68,2.98,10.41,3.18c6.73,2.68,14.14,2.81,20.83,5.57c5.84,1.38,11.66,2.87,17.45,4.43
		c9.93,4.45,21.32,4.03,31.12,8.76c5.81,0.89,11.39,2.64,16.45,5.69c2.14,1.59,4.79,1.01,7.14,0.27
		C789.61,503.01,788.97,500.26,789.84,497.61z M362.27,341.35c-7.27,6.07-14.73,11.93-22.36,17.56c-8.58,7.2-17.87,13.47-26.9,20.08
		c-8.06,6.39-16.74,11.9-24.95,18.07c-12.93,9.61-26.57,18.2-40.08,26.96c-4.59,4-10.48,5.95-15.18,9.78
		c-4.85,3.67-10.43,6.12-15.49,9.44c-5.32,3.13-11.17,5.25-16.3,8.69c-11.48,5.02-22.94,10.53-35.37,12.82
		c-11.06,2.1-22.54,3.44-33.71,1.36c-14.72-0.68-26.03-11.32-36.55-20.45c-3.25-4.07-7.54-7.14-10.65-11.31
		c-4.22-5.51-9.25-10.46-12.53-16.64c-2.77-5.08-6.72-9.43-9.22-14.65c-3.7-10.47-9.21-20.18-12.66-30.75
		c-1.53-4.79-2.48-9.73-4.02-14.52c-3.35-9.96-3.32-20.59-5.52-30.8c0.33-2.27,0.54-4.56-0.09-6.8c0.44-0.27,1.31-0.81,1.74-1.08
		c0.03-2.07-0.72-4.06-0.83-6.12c2.29-5.62,3.65-11.68,6.2-17.25c3.24-5.61,6.47-11.29,10.86-16.1c1.65-1.83,2.78-4.05,4.31-5.97
		c0.68,0.66,1.36,1.34,2.03,2.03c0.92-3.95,5.09-6.3,8.96-6.33c8.36-3.94,17.88-4.27,26.99-4.52c5.21-0.63,10.46-0.86,15.7-1.04
		c5.45,0.66,10.91,1.3,16.41,1.37c1.59-0.14,2.95,0.74,4.39,1.27c2.06,0.48,4.19-0.14,6.28,0.1c6.85,1.64,14.01,1.44,20.65,4.05
		c5.75-0.38,10.91,2.79,16.62,2.54c4.15,0.22,7.94,2.16,12.02,2.84c5.54,1.58,11.16,2.9,16.74,4.36c9.58,4.08,19.99,5.54,29.66,9.37
		c11.44,5.02,23.65,7.92,35.19,12.68c3.51,1.7,7.33,2.6,11.02,3.86c7.84,3.71,16.22,6.1,24.55,8.43c8.68,4.17,17.99,6.78,26.97,10.2
		c3.17,1.63,6.42,3.1,9.85,4.09c6.49,3.09,12.93,6.35,19.86,8.39C366.62,339.64,363.67,339.88,362.27,341.35z"/>
	<path fill="#1E1E1E" d="M1445.44,329.58c-1.09-1.22-2.22-2.4-3.19-3.69c0.69-1.34,1.52-2.6,2.22-3.94
		c-1.1-1.42-2.34-2.71-3.729-3.8c-5.92-0.45-11.93,0.31-17.78-0.99c-7.24-0.09-14.4-1.09-21.61-1.5c-5.33-1.02-10.77-0.31-16.1-1.09
		c-5.23-0.88-10.56-0.31-15.76-1.31c-18.87-0.98-37.67-3.33-56.54-4.36c-14.94-1.57-29.98-2.1-44.94-3.52
		c-14.07-0.4-28.04-2.28-42.12-2.59c-8.81-1.19-17.75-0.74-26.56-2.09c-5.48-1.05-11.15,0.16-16.51-1.56
		c-3.61-0.21-7.23-0.27-10.78-1.04c-8.84-0.01-17.62-1.93-26.46-1.41c-6.26-1.53-12.78-1.27-19.12-2.28
		c-11.82-1.47-23.71-2.49-35.48-4.33c-18.05-1.8-36.32-4.01-53.27-10.83c-3.61-1.22-8.93-1.81-9.82-6.29
		c-1.87-10.87-6.52-21.05-8.09-31.97c0.26-3.95-1.56-7.49-2.34-11.27c-0.77-3.08-3.4-6.08-6.53-6.66c-4.22,0.96-4.46,5.79-5.28,9.27
		c-2.09,6.76-0.72,13.86-1.22,20.8c-0.43,3.42,1.63,6.37,1.7,9.72c1.81,7.12,3.91,14.53,8.88,20.16c2.37,2.23,5.46,3.76,7.2,6.62
		c1.37,2.3,2.13,4.9,2.79,7.49c1.74,7.76,3.47,15.55,5.93,23.12c2.63,5.85,3.43,12.25,4.73,18.48c1.81,7.28,4.19,14.42,6.16,21.66
		c-2.89-0.88-5.06-3.05-7.64-4.48c-5.88-2.53-12.34-3.1-18.46-4.78c-7.19-3.3-11.72-10.23-17.979-14.82
		c-1.021-1.93-1.28-4.49-3.46-5.52c-1.76-1.38-4.13-0.74-6.16-0.73c-1.63,2.34-1.68,5.43-3.36,7.78
		c-3.37,5.51-6.09,11.36-9.05,17.07c-2.58,0.43-3.99-2.42-5.79-3.78c-2.25-2.84-5.54-4.47-8.07-6.99c-3.09-3.01-7.2-4.69-10.24-7.75
		c-2.08-1.99-4.63-3.36-6.97-4.98c-5.88-3.73-11.29-8.16-17.28-11.7c-4.72-2.22-8.51-6.09-13.54-7.66c-1.13-0.52-2.8-0.52-3.13-1.98
		c2.37-3.58,4.83-7.13,6.93-10.88c2.15-3.65,1.64-8.08,3.49-11.84c1.95-7.28,4.39-14.54,8.26-21.04c3.5-4.38,4.7-9.95,7.1-14.9
		c2.66-5.24,3.61-11.11,6.07-16.42c-1.04-0.86-2.19-1.56-3.18-2.45c-0.73-3.28-0.96-7.41-4.31-9.18c-2.62,0.84-4.57,2.93-4.74,5.73
		c-0.86,7.08-6.05,12.44-8.06,19.1c-1.37,5.9-3.06,11.81-5.94,17.17c-3.46,7.45-4.74,15.9-9.45,22.77
		c-2.8,5.16-5.21,10.54-8.39,15.49c-0.35,0.08-1.06,0.26-1.41,0.35c-10.71-5.4-22.3-8.9-34.06-11.09c-4.11-0.32-8.65,0.67-11.67,3.6
		c-3.69,6.87-3.62,14.95-3.97,22.55c0.05,10.69-0.86,21.34-0.79,32.04c0.25,4.75-1.78,9.13-2.65,13.7
		c-1.03,6.06-2.36,12.05-3.23,18.13c-0.35-0.06-1.06-0.19-1.41-0.26c-3.119-3.58-6.259-7.148-9.238-10.848
		c-0.101-0.303-0.265-0.585-0.51-0.813c-0.11-0.102-0.214-0.207-0.315-0.318c-0.034-0.041-0.057-0.067-0.074-0.087
		c-0.022-0.031-0.045-0.062-0.068-0.093c-0.25-0.35-0.486-0.709-0.748-1.051c-0.405-0.529-0.85-1.005-1.361-1.389
		c-0.076-0.152-0.168-0.3-0.305-0.44c-1.66-2.46-3.68-4.64-5.39-7.05c-0.428-0.664-1.025-0.891-1.688-0.946
		c-0.062-0.16-0.132-0.316-0.21-0.469c0.027,0.003,0.051,0.002,0.078,0.005c-1.77-3.56-5.19-5.93-7.5-9.12
		c-7.75-6.9-15.55-13.79-23.72-20.22c-1.25-0.92-2.77-1.41-4.26-1.68c-3.93,0.64-3.2,5.84-3.95,8.8c2.46,9.2,5.96,18.17,7.48,27.61
		c0.7,4.24,2.55,8.27,2.56,12.62c-3.39-2.04-3.39-6.54-6.02-9.21c-1.95-1.69-4.95-3.02-7.31-1.3c-2.67,9.56-3.22,20.31-10.05,28.11
		c-1.2,0.44-1.94,0.04-2.22-1.19c-2.77-6.71-5.19-13.59-6.69-20.7c-1.11-5.19-2.86-10.38-2.24-15.76c0.93-8.7-3.57-16.52-5.78-24.66
		c-2.51-1.08-6.35-2.74-7.75,0.75c-0.92,6.97,1.85,13.72,2.44,20.59c-2.58,5.63-4.95,11.73-9.84,15.82
		c-6.44,5.96-14.23,12.07-23.5,11.6c-2.11-1.79-2.91-4.63-4.32-6.93c-2.73-5.87-6.13-11.53-7.53-17.91
		c-1.2-5.14-4.36-9.45-6.66-14.1c-2.56-7.02-3.59-14.54-7.03-21.25c0.46-1.1,1.19-2.05,1.83-3.04c0.08-4.75-2.81-8.76-4.06-13.18
		c-1.87-7.16-4.75-14.04-8.66-20.32c-2.02-1.36-6.07-3.01-7.45-0.16c-0.729,8.73,3.31,16.75,4.87,25.15
		c2.53,8.83,6.43,17.22,8.59,26.17c2.89,8.23,6.29,16.27,9.73,24.28c-4.32-1.12-8.85-1.24-13.25-0.67
		c-3.22,1.07-6.28,2.85-8.78,5.15c-1.51,1.3-2.05,3.67-3.98,4.41c-1.98-3.01-3.97-6.07-6.57-8.57c-4.41-3.05-9.34-5.69-14.79-5.99
		c-5.65-1.07-11.07,1.4-16.06,3.73c-1.63,0.66-2.52,3.11-4.49,2.67c-3.12-4.5-7.51-7.89-10.521-12.47c-3.55-4.59-8.83-7.22-13.13-11
		c-6.71-4.57-13.86-8.49-21.36-11.6c-4.88-2.69-10.35-3.95-15.67-5.4c-6.01-0.63-13.15-3.05-18.31,1.36
		c0.04,4.77,0.48,9.56,1.03,14.3c0.2,3.74,3.73,6.06,4.36,9.69c0.85,0.16,1.7,0.19,2.57,0.06c2.07-2.75,3.38-5.8,2.9-9.29
		c4.08-2.33,8.58-0.19,12.78,0.53c4.39,0.65,8.46,2.51,12.35,4.58c4.16,1.84,8.4,3.54,12.479,5.59c4.56,2.34,8.32,5.94,12.89,8.27
		c2.58,2.35,4.37,5.49,7.4,7.39c2.09,2.88,4.92,5.47,6.44,8.63c-1.52,7.81-1.04,16.21,2.58,23.43c1.95,3.85,3.01,8.12,5.26,11.81
		c2.73,2.8,5.75,7.23,10.24,5.38c4.54-5.57,3.19-13.09,2.69-19.68c-0.7-4.73-3.8-8.52-6-12.62c-1.25-2.42-1.21-6.2,1.54-7.58
		c2.93-1.27,6.09-1.94,9.19-2.7c5.7,0.16,12.34,1.98,14.83,7.77c-1.83,6.29-2.4,12.98-1.26,19.46c1.25,2.94,2.5,5.88,3.74,8.83
		c1.41,0.87,2.92,1.59,4.5,2.15c4.78-2.46,5.13-8.11,6.25-12.72c0.23-4.46-0.98-9.24,1.33-13.37c0.88-0.34,1.79-0.38,2.72-0.13
		c1.7,10.57,12.37,15.87,16.28,25.33c2.24,0.68,4.67,0.04,6.95-0.26c0.5-3.01-2.01-5.34-2.33-8.23c2.93-0.76,5.76,1.08,8.74,0.91
		c5.45,0.69,10.59-1.59,15.95-2.07c4.47-1.32,9.15-3.13,12-7.05c1.85-2.91,5.92-2.42,8.1-4.93c1.59-1.62,3.13-3.3,4.51-5.1
		c-0.38-0.72-0.74-1.42-1.1-2.13c1.1-0.63,2.27-1.13,3.47-1.54c0.72,1.51,0.97,3.18,1.24,4.83c0.86,5.54,3.26,10.65,4.92,15.96
		c2.21,5.81,4.54,12.36,10.24,15.64c2.79,1.38,6.32,2.34,9.31,1.06c2.7-3.57,4.17-7.81,5.32-12.08c1.71-3.31,3.06-6.77,3.78-10.44
		c2.6,1.39,3.03,4.57,4.01,7.08c1.05,3.7,2.25,7.38,4.4,10.62c3.1,4.74,3.56,10.63,6.34,15.54c2.07,0.62,4.27,0.66,6.43,0.52
		c0.28-0.58,0.83-1.75,1.1-2.33c0.66-9.61-1.86-19.06-3.34-28.49c-1.54-4.59-1.83-9.43-2.72-14.14c-1.64-3.9-1.68-8.2-3-12.18
		c-2.23-5.38-1.5-11.35-3.39-16.83c0.35-0.19,1.04-0.57,1.39-0.76c3.47,4.18,8.39,6.77,12.05,10.76c4.19,3.87,7.37,8.66,11.3,12.75
		c6.5,5.36,9.62,13.52,15.49,19.45c3.56,3.33,4,9.12,8.59,11.51c1.55,1.45,4.17,1.99,5.94,0.65c0.12-6.28,2.93-11.95,4.16-18.02
		c1.66-9.81,1.98-19.81,3.82-29.59c0.61-6.23,1.38-12.5,0.69-18.74c-0.34-7.68,1.11-15.28,1.51-22.92c0.04-2.97,2.3-6.44,5.61-6.06
		c3.24,0.45,6.47,0.99,9.74,1.24c5.73,1.53,11.39,3.38,17.05,5.16c-1.4,6.69-6.92,11.6-9.53,17.82c-2.23,5.81-6.12,10.75-8.65,16.41
		c-3.12,6.77-6.56,13.45-8.73,20.6c-1.66,5.38-1.29,11.05-1.42,16.61c0.01,5.82,0.16,11.84,2.34,17.33
		c2.42,5.1,4.66,10.34,7.98,14.94c5.5,3.49,11.58,5.88,17.55,8.44c6.66,2.65,13.86,3.32,20.75,5.11c2.3,0.23,4.6-0.32,6.92-0.37
		c0.14,0.38,0.43,1.16,0.57,1.54c2.02,0.47,4.56-0.27,6.12,1.47c2.21,2.09,2.61,5.32,3.93,7.96c1.49,4.2,5.63,6.4,8.57,9.47
		c3.56,3.98,8.24,6.76,13.06,8.96c4.63,2.11,9.87,0.5,14.55,2.4c9.25,1.83,18.75,2.32,28.18,2.44c6,0.18,11.88,1.61,17.9,1.61
		c7.79,1.51,16.33,2.91,22.32,8.6c3.38,2.98,6.57,6.3,8.59,10.39c2.67,4.17,6.24,8.56,5.52,13.85c-1.46,7.53-7.79,12.59-13.82,16.62
		c-7.41,5.84-16.8,8.24-26.01,9.25l-0.007,0.074c-0.208,0.033-0.42,0.086-0.636,0.187c-1.533,0.714-3.544,0.385-5.178,0.657
		c-0.379,0.063-0.766,0.2-1.132,0.391c-0.857-0.063-1.796,0.127-2.587,0.032c-2.89,0.167-5.75,0.586-8.604,1.053
		c-1.493-0.179-2.849,0.121-4.125,0.682c-2.438,0.399-4.88,0.767-7.34,0.975c-8.97,1.63-18.11,2.34-26.87,4.96
		c-12.15,1.19-23.9,4.62-35.99,6.25c-2.3,0.22-4.03,2.34-6.39,2.14c-5.65-0.45-11.06,1.56-16.64,1.95c-1.9,0.05-3.31,1.42-4.93,2.19
		c-3.14-0.64-6.23-0.4-9.17,0.88c-5.27-0.11-10.34,1.55-15.52,2.31c-4.27,1.08-8.95,1.28-12.68,3.87c-3.24-0.58-6.44,0.06-9.61,0.71
		c-9.93,1.41-19.62,4.01-29.54,5.5c-13.21,3.02-26.84,3.92-39.82,7.95c-5.42,0.26-10.32,2.83-15.73,3.25
		c-25.646,5.857-51.526,10.784-77.043,17.201c-0.557,0.085-1.114,0.166-1.669,0.265c-0.475,0.084-0.911,0.259-1.305,0.496
		c-1.587,0.407-3.178,0.798-4.762,1.218c0.003,0.014,0.008,0.026,0.011,0.04c-0.621,0.119-1.164,0.344-1.632,0.646
		c-6.175-0.37-12.099,1.875-17.849,3.824c-5.89,1.11-11.75,2.33-17.59,3.64c-9.16,2.58-18.6,4.16-27.62,7.24
		c-5.4,1.07-10.88,1.97-16.03,4.04c-7.31,1.55-14.35,4.07-21.68,5.52c-12.19,4.01-24.81,6.49-37.03,10.39
		c-3.44,0.95-7.11-0.33-10.47,0.94c-14.07,5.92-29.45,7.68-43.64,13.25c-7.4,1.39-14.59,3.68-21.63,6.29
		c-12.38,2.67-24.26,7.31-36.79,9.31c-1.46,0.18-2.41,1.45-2.46,2.87c-0.42,5.29,1.29,11.18,5.77,14.32
		c6.4,2.23,12.82-0.67,19.12-1.68c4.58-1.16,9.07-2.67,13.41-4.45c7.25-0.3,13.21-5.04,20.31-5.76c3.44-0.55,6.28-2.88,9.77-3.3
		c12.62-2.09,24.47-7.19,36.88-10.09c2.389-0.45,6.162-0.801,7.782-2.838c1.417-0.34,2.828-0.702,4.23-1.097
		c1.692,0.042,3.421-0.418,4.937-1.185c5.08-2.52,10.92-2.11,16.28-3.64c4.57-1.36,9.44-1.85,13.7-4.14
		c4.85-2.61,10.63-2.18,15.54-4.61c2.27-1.19,4.8-1.56,7.32-1.81c8.57-1,16.22-5.92,24.89-6.32c8.76-1.79,17.04-5.6,25.98-6.58
		c8.12-1.46,16.03-3.8,23.93-6.12c2.26-1.07,4.96,0.56,7.1-0.94c1.98-1.21,4.29-1.69,6.58-1.27c2.12,0.47,3.62-1.58,5.63-1.79
		c5.3-0.46,10.45-1.9,15.58-3.28c5.23-1.88,10.49-4.01,16.14-4.19c7.47-1.22,14.69-3.96,22.3-4.36c3.65-0.5,7.62,0.11,10.91-1.93
		c5.36-3,11.56-3.46,17.52-4.26c6.73-0.89,12.98-3.86,19.73-4.63c3.98-0.45,7.87-1.43,11.83-2.02c9.54-0.3,18.48-4.15,27.96-5.11
		c3.65-1.17,7.71,0.24,11.07-1.94c2.46-1.62,5.47,0.02,8.06-1.14c4.6-1.68,9.42-2.69,14.21-3.69c3.86-0.91,7.95-0.55,11.69-2.05
		c5.34-1.94,11.1-1.94,16.52-3.6c3.06-0.93,6.28-0.63,9.44-0.83c2.24-0.07,3.99-1.76,6.14-2.15c9.35-0.01,18.37-2.81,27.62-3.78
		c9.19-1.1,18-4.53,27.31-4.74c5.749-0.229,11.043-3.273,16.855-2.874c0.652,0.096,1.306,0.174,1.97,0.189
		c0.868,0.02,1.689-0.21,2.406-0.617c1.341-0.297,2.666-0.697,3.989-1.068c-0.02,0.47-0.06,1.41-0.07,1.88
		c0.96-1.77,2.76-2.89,4.84-2.8c3.79,0.14,7.35-1.46,11.14-1.45c1.69-0.1,3.27-0.8,4.93-1.16c5.31-1.49,11.01-0.01,16.24-1.92
		c3.56-1.3,7.45-0.38,11.01-1.63c4.65-1.53,9.62-1.28,14.41-2.16c5.519-1.008,11.133-1.273,16.684-2.099
		c0.817,0.062,1.594-0.099,2.366-0.406c0.065,0.04,0.124,0.087,0.19,0.125c2.67-0.25,5.3-0.83,7.98-1.17
		c2.21-0.12,4.09-1.93,6.39-1.26c3.28,0.74,6.36-1.05,9.63-1.02c3.95,0.11,7.51-1.97,11.45-2.09c3.56-0.16,7.15-0.19,10.63-1.13
		c6.54-1.63,13.33-1.32,19.93-2.62c4.77,0.01,9.21-2.2,14.01-2.01c3.09,0.14,5.899-1.36,8.939-1.63
		c12.72-0.46,25.25-2.62,37.93-3.64c4.69-0.65,9.51-0.23,14.13-1.48c3.76-1.17,8.02,0.79,11.5-1.46c2-1.04,4.34-0.35,6.51-0.4
		c5.11,0.49,10.12-2.24,15.17-0.56c0.11-0.33,0.33-0.98,0.44-1.31c3.53-0.1,7.06-0.25,10.6-0.4c-0.41,3.12-3.95,2.26-6.15,2.6
		c-3.06,0.03-4.98,3.47-8.12,3.12c-1.52-0.31-2.42-1.8-3.84-2.2c0.06,1.54,1.99,1.55,2.65,2.72c-2.37,0.76-4.94,0.85-7.15,2.06
		c-0.15,2.18,2.93,0.87,4.22,0.96c5.44-1.39,11.12-1.48,16.53-3.09c0.08,2.01-2.8,2.26-4.01,3.49c0.15,0.59,0.38,1.21,0.68,1.77
		c1.65-1.38,3.69-0.91,5.67-0.85c1.24-0.79,2.37-1.75,3.62-2.55c0.11,0.48,0.33,1.43,0.44,1.91c2.81-0.61,5.75-0.93,8.41-2.1
		c1.55-2.83,5.13-1.96,7.74-1.56c-0.21-1.03-0.39-2.05-0.55-3.07c1.79,0.58,3.37,1.61,4.97,2.61c5.58-2.08,11.61-1.91,17.43-2.87
		c4.27-1.6,8.7-5,13.43-3.13c-0.06-0.44-0.17-1.32-0.229-1.76c1.34-0.69,2.87-0.6,4.34-0.67c5.98-0.66,11.58-3.57,17.68-3.26
		c2.87,0.15,5.32-1.86,7.48-3.53c1.12-3.16-1.62-5.28-2.72-7.77c2.11-2.62,0.13-5.65-1.99-7.47c-2.15-2.61-5.79-1.19-8.63-1.16
		c-15.05,1.21-30.08,2.12-45.06,3.85c-6.73-0.16-13.35,1.11-20,1.89c-11.45,0.32-22.71,2.9-34.16,3.32
		c-9.06,1.17-18.24,1.37-27.18,3.33c-4.32,0.49-8.7,0.48-12.98,1.26c-7.48,1.15-15.09,1.06-22.54,2.42
		c-11.207,1.503-22.559,2.065-33.594,4.612c-0.585-0.113-1.208-0.104-1.853,0.063c-18.316,2.007-36.376,5.845-54.753,7.325
		c-6.07,0.83-12.021,2.45-18.14,2.94c1.29-1.91,3.34-3.68,3.47-6.11c0.05-0.258,0.007-0.461-0.067-0.645
		c0.226-0.94,0.386-1.897,0.455-2.861c1.021-2.125,0.97-4.647,0.883-6.964c-1.19-9.79-3.64-19.71-9.12-28.04
		c-2.5-3.74-4.92-7.67-8.58-10.4c-8.84-7.49-19.83-12.81-31.45-13.73c-12.33-1.53-24.75-1.81-37.11-2.66
		c-6.97-0.7-13.82-2.21-20.34-4.78c-3.92-1.62-6.87-4.83-10.78-6.46c1.91-1.69,4.88-1.03,7.26-1.46c-0.04,0.81-0.06,1.63-0.06,2.46
		c6.52-0.63,13.26,2.52,19.58,0.04c3.11,0.18,6.24,0.39,9.34-0.1c6.51-0.12,13.21,1.52,19.6-0.42c4.84-1.51,10.34-1.22,14.45-4.58
		c2.35-2.09,6.62-2.9,7.1-6.47c-1.23-4.38-0.57-8.95-1.26-13.4c0.24-3.51-2.12-6.3-3.3-9.41c-1.71-4.34-4.81-7.89-7.07-11.92
		c-1.82-3.42-4.55-6.22-6.57-9.51c-3.87-6.12-9.92-10.94-12.77-17.62c1.68-5.26,4.92-9.98,8.49-14.09c2.87,2.45,5.59,5.08,8.13,7.89
		c1.83,2.02,4.68,2.59,6.69,4.39c4.01,4.02,10.04,4.35,15.26,5.75c7.79,1.44,15.59,4.97,20.35,11.52c1.91,2.55,1.66,6.06,3.38,8.66
		c2.61,1.82,5.74,0.46,7.59-1.76c0.85-7.29-2.57-14.17-3.07-21.36c-2.3-13.23-7.94-25.64-9.7-38.99
		c-2.72-10.54-7.12-20.77-8.35-31.63c1.37-0.98,3.34-1.89,4.83-0.57c3.16,2.05,6.69,3.52,10.51,3.63c3.13,2.01,6.94,2.04,10.39,3.23
		c5.29,0.64,10.15,4.6,15.62,2.85c2.8-0.95,5.32,1.63,8.13,1.13c4.81-1.16,9.4,1.58,14.21,1.62c3.79,0.03,7.42,1.05,10.99,2.22
		c4-0.29,8-0.1,12.01-0.27c1.9,0.02,4.47,0.25,4.82,2.58c7.34,0.54,14.77,0.58,22.14,0.3c5.73,1.33,11.78,3.79,17.68,1.83
		c4.43-0.38,8.83,1.01,13.19,1.5c4.58-1.13,8.97,0.99,13.54,1.1c6.61-0.21,13.19,0.77,19.72,1.73c1.14-0.08,2.15-1.27,3.34-0.56
		c2.67,1.29,5.68,0.61,8.54,1.08c4.65,0.76,9.38,0.26,14.07,0.05c4.36,0.02,8.54,1.84,12.93,1.68c5.33-0.53,10.58,0.87,15.83,1.6
		c4.6,1.02,9.31-0.21,13.95,0.26c4.01,1.25,8.24,1.33,12.34,2.18c7.01,0.27,14.08-0.24,21.01,1.19c3.4-0.1,6.77,0.12,10.01,1.29
		c3.42-0.03,6.94-1.12,10.02,1.01c2.43-0.85,4.75-0.64,6.95,0.74c1.31-0.23,2.56-0.83,3.91-1.02c8.44,1.88,17.18,2.33,25.73,3.28
		c2.64,2.09,5.92,2.63,9.16,3.16c0.2,1.49-1.85,1.89-2.6,2.9c1.63-0.38,3.01-1.31,4.11-2.56c3.22,0.81,6.53,0.98,9.82,1.41
		l0.43,1.16c-1.44,0.01-2.86,0.04-4.27,0.1c-0.34,0.4-1.03,1.19-1.37,1.59c8-1.08,16.06-2.7,24.17-2.16
		c6.3,1.18,12.51-0.98,18.82-0.73c5.28-0.02,11.2,1.04,15.77-2.33C1446.03,333,1447.09,330.81,1445.44,329.58z M684.29,373.16
		c2.69-1.98,5.81-0.25,8.2,1.35c2.89,2.03,6.31,3.94,7.42,7.55C693.78,381.67,686.81,379.24,684.29,373.16z M993.35,390.64
		c4.63,8.45,11.93,15.11,16.39,23.7c0.46,1.95-0.021,4.39-1.87,5.48c-2.69,1.62-5.6,2.96-8.72,3.41
		c-9.45,1.88-19.12,1.69-28.67,1.99c-7.03-1.25-14.18-1.49-21.29-1.45c-5.32-1.24-10.75-1.71-16.2-1.82
		c-2.49,0.16-3.93-2.31-6.12-3.01c-2.77-0.29-5.31,1.95-8.05,0.94c-9.57-2.45-19.06-5.18-28.68-7.43
		c-6.74-2.8-13.94-6.47-17.46-13.22c-2.35-4.69-0.1-9.87-0.67-14.71c2.61-4.01,3.15-8.87,5.53-12.97c1.6-2.84,2.37-6.1,4.37-8.71
		c3.88-4.94,6.24-10.82,8.64-16.57c1.92-4.57,6.1-7.86,7.27-12.78c2.15-3.56,4.34-7.11,5.99-10.95c1.29-0.53,2.48,0.51,3.64,0.98
		c4.13,2.32,8.37,4.44,12.67,6.45c4.3,3.1,8.41,6.63,13.44,8.54c2.51,1.73,4.43,4.28,7.22,5.66c5.32,2.83,10.18,6.41,14.9,10.13
		c4.45,2.81,6.74,7.82,11.28,10.59c-2.78,3.93-6.06,7.65-10.18,10.2c-1.36,0.17-2.94,0.07-3.95-0.92
		c-9.1-8.12-14.27-19.57-23.1-27.9c-1.73-2.14-2.35-4.9-3.75-7.22c-1.99-1.45-4.84-3.35-7.04-1.2c-1.14,2.25-1.51,4.82-1.89,7.29
		c-0.16,3.54,1.58,6.84,1.55,10.39c0,3.5,1.39,6.96,3.65,9.59c2.06,0.58,3.25-1.23,4.84-2.04c2.27,1.19,3.19,4.04,5,5.84
		c2.97,3.03,5.38,6.6,8.67,9.31c4.38,3.66,6.53,9.48,11.63,12.37c2.08,1.06,4.06,3.07,6.59,2.55c2.7,0.05,4.76-1.85,6.88-3.25
		c5.59-3.09,7.76-9.56,12.57-13.54c2.01-0.52,3.25,1.51,4.65,2.57C986.82,382.53,990.17,386.54,993.35,390.64z"/>
	<g>
		<path fill="#1E1E1E" d="M528.71,441c-0.26-1.79,1.15-4.02,3.14-3.64c2.68,0.62,4.71,2.85,5.63,5.4c0.93,2.8,4,4.37,4.23,7.46
			c0.54,4.7,3.03,8.73,4.77,13.02c-0.47,0.2-1.42,0.58-1.89,0.77c-0.11,0.46-0.34,1.38-0.46,1.84c-2.39,0.27-4.71-0.45-7.06-0.73
			c-1.25,0.59-1.28,2.24-0.24,3.05c3.99,3.4,9.18,5.27,12.62,9.35c4.11,4.63,9.03,8.48,12.89,13.34c6,6.15,11.98,12.64,15.29,20.71
			c1.07,2.97,3.35,5.32,4.36,8.34c1.92,5.26,5.229,10.09,5.84,15.77c-3.41-1.9-4.59-5.82-6.9-8.74
			c-4.52-7.03-9.05-14.09-14.22-20.68c-3.22-3.15-6.01-6.69-8.88-10.12c-8.65-6.03-16.1-14-26.02-17.98
			c-0.39-0.01-1.15-0.05-1.53-0.06c-3.75,4.36-6.07,9.82-10.47,13.66c-3.39,4.64-8.52,7.47-12.23,11.79
			c-2.06,2.3-5.05,4.43-8.27,3.22c-2.66-0.37-3.72-3-5.13-4.9c-2.41-3.85-6.42-6.43-8.48-10.54c-3.37-5.56-5.1-11.89-7.99-17.63
			c-0.24-4.62-1.93-9.05-1.89-13.69c-0.19-1.46,0.71-2.67,1.63-3.67c8.99-1.7,18.19-3.42,27.34-2c5.63,2.29,11.55,3.68,17.22,5.86
			C526.08,454.7,528.92,447.97,528.71,441z M488.67,470.77c-0.08,0.53-0.25,1.58-0.33,2.1c2.28,5.41,4.2,11.58,9.7,14.62
			c3.89-1.4,6.52-5.19,9.53-7.95c1.97-3.34,5.47-5.32,7.46-8.62c-1.97-0.03-3.82,0.86-5.77,0.82c0.36-0.92,1.77-1.37,1.42-2.54
			c-2.13-0.62-4.37-0.48-6.54-0.33c0.05,0.49,0.16,1.46,0.22,1.95c-2.69-0.27-5.4-0.38-8.07,0.04c0.62-0.62,1.24-1.24,1.85-1.87
			C494.96,469.38,491.67,469.55,488.67,470.77z"/>
	</g>
	<path fill="#1E1E1E" d="M1005.29,529.02"/>
	<path fill="#1E1E1E" d="M1228.64,598.45c-0.06-6-0.64-13.91,5.34-17.41c4.6,3.29,7.03,8.61,9,13.74
		c1.56,5.35,0.37,11.14-2.36,15.91C1235.3,608.18,1233.77,601.4,1228.64,598.45z"/>
	<path fill="#1E1E1E" d="M1139.95,601.89c3.27-0.34,6.57-1.26,9.88-0.74c3.66,0.86,7.63,3.97,11.28,1.43
		c4.25,0.3,8.75-1.59,12.71,0.66c2.77,1.49,5.89,2.04,8.91,0.95c-0.49,0.81-1,1.61-1.43,2.45c0.78,0.38,1.6,0.67,2.47,0.88
		c-2.33,0.95-4.61,2.03-6.79,3.27c1.74,0.89,3.68,1.56,5.06,3.06c-7.54,1.87-15.49,0.47-23.02,2.47c-4.2,0.26-9.33-0.41-12.42,3.1
		c0.07,3.39-2.66,5.55-5.57,6.66c-1.75-0.57-3.46-1.33-4.95-2.4c-0.56-3.54-1.14-7.1-1.53-10.65c0.25-3.2,0.57-6.39,1.03-9.56
		C1136.56,602.07,1138.44,602.14,1139.95,601.89z"/>
</g>
</svg>
